<svg width="335" height="71" viewBox="0 0 335 71" fill="none" xmlns="http://www.w3.org/2000/svg">
<path d="M50.2684 34.4214C50.8114 34.6115 51.3918 34.6696 51.9617 34.5909C52.5316 34.5121 53.0746 34.2988 53.5456 33.9685C54.0167 33.6382 54.4023 33.2005 54.6706 32.6916C54.9389 32.1827 55.0822 31.6173 55.0886 31.042V23.9547C55.0883 22.1729 54.5346 20.4352 53.5042 18.9816C52.4738 17.528 51.0173 16.4302 49.3362 15.8399L4.82108 0.203481C4.27473 0.0122206 3.69051 -0.0453468 3.11734 0.0355995C2.54417 0.116546 1.99873 0.333649 1.52672 0.668728C1.0547 1.00381 0.669845 1.44711 0.404378 1.9615C0.138908 2.4759 0.000557112 3.04642 0.000905166 3.62527V13.022C-0.0064368 14.1303 0.334111 15.2131 0.974576 16.1177C1.61504 17.0224 2.52315 17.7033 3.57101 18.0646L28.9961 27.0058L50.2684 34.4214Z" fill="white"/>
<path d="M0.000141746 50.3853C0.00147814 50.9633 0.141067 51.5325 0.407253 52.0456C0.673435 52.5586 1.05849 53.0005 1.53026 53.3343C2.00204 53.6682 2.54684 53.8844 3.11919 53.9648C3.69153 54.0452 4.2748 53.9875 4.82031 53.7965L41.549 40.9039C41.7637 40.8221 41.9486 40.677 42.079 40.4878C42.2094 40.2987 42.2792 40.0743 42.2792 39.8445C42.2792 39.6147 42.2094 39.3903 42.079 39.2012C41.9486 39.012 41.7637 38.8669 41.549 38.7851L26.9189 33.6259L21.6221 31.772C19.63 31.0727 17.4591 31.0727 15.4671 31.772L3.55965 35.946C2.51377 36.3091 1.60795 36.9908 0.969498 37.8953C0.331042 38.7997 -0.00795543 39.8815 0.000141746 40.9886V50.3853Z" fill="white"/>
<path d="M97.9616 38.369C97.9616 41.834 97.3071 44.8113 95.9981 47.301C94.7147 49.765 92.8667 51.6515 90.4541 52.9605C88.0671 54.2695 85.2437 54.924 81.9841 54.924C79.6227 54.924 77.5694 54.616 75.8241 54C74.0787 53.4097 72.6927 52.768 71.6661 52.075C70.6394 51.3563 70.0106 50.8173 69.7796 50.458L74.0916 40.4865C74.3996 40.9228 74.8359 41.3977 75.4006 41.911C75.9652 42.4243 76.6582 42.8735 77.4796 43.2585C78.3009 43.6178 79.2249 43.7975 80.2516 43.7975C81.4322 43.7975 82.4846 43.5537 83.4086 43.066C84.3326 42.5783 85.0641 41.7698 85.6031 40.6405C86.1677 39.5112 86.4501 38.0097 86.4501 36.136V3.18H97.9616V38.369ZM121.998 54.924C118.533 54.924 115.453 54.2182 112.758 52.8065C110.088 51.3692 107.984 49.4057 106.444 46.916C104.929 44.4007 104.172 41.526 104.172 38.292C104.172 35.058 104.929 32.1833 106.444 29.668C107.984 27.127 110.088 25.125 112.758 23.662C115.453 22.199 118.533 21.4675 121.998 21.4675C125.463 21.4675 128.517 22.199 131.161 23.662C133.804 25.125 135.87 27.127 137.359 29.668C138.848 32.1833 139.592 35.058 139.592 38.292C139.592 41.526 138.848 44.4007 137.359 46.916C135.87 49.4057 133.804 51.3692 131.161 52.8065C128.517 54.2182 125.463 54.924 121.998 54.924ZM121.998 45.299C123.332 45.299 124.487 45.0038 125.463 44.4135C126.438 43.8232 127.195 42.989 127.734 41.911C128.273 40.833 128.543 39.6138 128.543 38.2535C128.543 36.8675 128.273 35.6355 127.734 34.5575C127.195 33.4795 126.438 32.6325 125.463 32.0165C124.487 31.4005 123.332 31.0925 121.998 31.0925C120.663 31.0925 119.495 31.4005 118.494 32.0165C117.519 32.6325 116.749 33.4795 116.184 34.5575C115.645 35.6355 115.376 36.8675 115.376 38.2535C115.376 39.6138 115.645 40.833 116.184 41.911C116.749 42.989 117.519 43.8232 118.494 44.4135C119.495 45.0038 120.663 45.299 121.998 45.299ZM145.49 54V1.024H157.194V27.0115C157.425 26.2928 158.016 25.51 158.965 24.663C159.941 23.7903 161.211 23.046 162.777 22.43C164.368 21.7883 166.165 21.4675 168.167 21.4675C171.247 21.4675 173.916 22.2247 176.175 23.739C178.434 25.2533 180.179 27.281 181.411 29.822C182.643 32.3373 183.259 35.135 183.259 38.215C183.259 41.295 182.643 44.1055 181.411 46.6465C180.179 49.1618 178.434 51.1767 176.175 52.691C173.916 54.1797 171.247 54.924 168.167 54.924C166.473 54.924 164.869 54.616 163.354 54C161.866 53.4097 160.57 52.6525 159.466 51.7285C158.388 50.7788 157.592 49.8292 157.079 48.8795V54H145.49ZM171.786 38.215C171.786 36.7777 171.465 35.4943 170.823 34.365C170.207 33.21 169.348 32.3117 168.244 31.67C167.166 31.0027 165.947 30.669 164.586 30.669C163.175 30.669 161.904 31.0027 160.775 31.67C159.671 32.3117 158.799 33.21 158.157 34.365C157.515 35.4943 157.194 36.7777 157.194 38.215C157.194 39.6523 157.515 40.9485 158.157 42.1035C158.799 43.2328 159.671 44.1183 160.775 44.76C161.904 45.4017 163.175 45.7225 164.586 45.7225C165.947 45.7225 167.166 45.4017 168.244 44.76C169.348 44.1183 170.207 43.2328 170.823 42.1035C171.465 40.9485 171.786 39.6523 171.786 38.215ZM213.027 35.674L205.673 54H194.932L184.46 22.3915H196.895L201.939 41.4875L209.215 23.0075H216.915L224.076 41.4875L229.158 22.3915H241.594L231.16 54H220.457L213.027 35.674ZM245.326 54V22.3915H257.03V54H245.326ZM251.332 15.885C249.484 15.885 247.918 15.2433 246.635 13.96C245.351 12.651 244.71 11.0982 244.71 9.3015C244.71 7.50483 245.351 5.952 246.635 4.643C247.944 3.30833 249.509 2.641 251.332 2.641C252.538 2.641 253.642 2.949 254.643 3.565C255.644 4.15533 256.452 4.951 257.068 5.952C257.684 6.953 257.992 8.0695 257.992 9.3015C257.992 11.0982 257.338 12.651 256.029 13.96C254.72 15.2433 253.154 15.885 251.332 15.885ZM279.261 21.4675C281.34 21.4675 283.239 21.6472 284.959 22.0065C286.679 22.3402 288.116 22.7252 289.271 23.1615C290.452 23.5978 291.209 23.9572 291.543 24.2395L287.731 31.131C287.243 30.7717 286.332 30.3097 284.998 29.745C283.689 29.1803 282.226 28.898 280.609 28.898C279.377 28.898 278.337 29.0905 277.49 29.4755C276.643 29.8348 276.22 30.4123 276.22 31.208C276.22 32.0037 276.682 32.6453 277.606 33.133C278.555 33.595 279.916 34.0057 281.687 34.365C283.227 34.673 284.792 35.1607 286.384 35.828C287.975 36.4953 289.297 37.4835 290.349 38.7925C291.427 40.0758 291.966 41.7955 291.966 43.9515C291.966 46.1588 291.491 47.9812 290.542 49.4185C289.592 50.8558 288.334 51.9723 286.769 52.768C285.203 53.5637 283.509 54.1155 281.687 54.4235C279.864 54.7572 278.093 54.924 276.374 54.924C273.961 54.924 271.856 54.7058 270.06 54.2695C268.289 53.8332 266.851 53.3327 265.748 52.768C264.644 52.2033 263.874 51.7542 263.438 51.4205L267.211 43.7205C267.878 44.2852 268.969 44.9268 270.483 45.6455C271.997 46.3385 273.602 46.685 275.296 46.685C276.938 46.685 278.209 46.4412 279.107 45.9535C280.005 45.4658 280.455 44.8242 280.455 44.0285C280.455 43.3868 280.236 42.8735 279.8 42.4885C279.364 42.1035 278.748 41.7698 277.952 41.4875C277.156 41.2052 276.194 40.9485 275.065 40.7175C274.038 40.5122 272.947 40.1913 271.792 39.755C270.637 39.3187 269.546 38.7283 268.52 37.984C267.493 37.214 266.659 36.2515 266.017 35.0965C265.375 33.9415 265.055 32.5427 265.055 30.9C265.055 28.7953 265.735 27.05 267.095 25.664C268.455 24.278 270.214 23.2385 272.37 22.5455C274.526 21.8268 276.823 21.4675 279.261 21.4675ZM307.496 40.679C307.573 41.8083 307.932 42.8093 308.574 43.682C309.216 44.5547 310.101 45.2477 311.231 45.761C312.386 46.2487 313.746 46.4925 315.312 46.4925C316.8 46.4925 318.135 46.3385 319.316 46.0305C320.522 45.7225 321.561 45.3375 322.434 44.8755C323.332 44.4135 324.025 43.9387 324.513 43.451L329.056 50.689C328.414 51.382 327.503 52.0622 326.323 52.7295C325.168 53.3712 323.64 53.8973 321.741 54.308C319.842 54.7187 317.442 54.924 314.542 54.924C311.051 54.924 307.945 54.2695 305.225 52.9605C302.504 51.6515 300.361 49.7265 298.795 47.1855C297.229 44.6445 296.447 41.5388 296.447 37.8685C296.447 34.7885 297.114 32.0165 298.449 29.5525C299.809 27.0628 301.772 25.0993 304.339 23.662C306.906 22.199 309.999 21.4675 313.618 21.4675C317.057 21.4675 320.034 22.0963 322.55 23.354C325.091 24.6117 327.041 26.4853 328.402 28.975C329.788 31.439 330.481 34.519 330.481 38.215C330.481 38.4203 330.468 38.831 330.442 39.447C330.442 40.063 330.416 40.4737 330.365 40.679H307.496ZM319.47 34.5575C319.444 33.7362 319.226 32.9277 318.815 32.132C318.404 31.3107 317.788 30.6433 316.967 30.13C316.146 29.591 315.093 29.3215 313.81 29.3215C312.527 29.3215 311.436 29.5782 310.538 30.0915C309.665 30.5792 308.998 31.2208 308.536 32.0165C308.074 32.8122 307.817 33.6592 307.766 34.5575H319.47Z" fill="white"/>
</svg>
